<svg xmlns="http://www.w3.org/2000/svg" xmlns:xlink="http://www.w3.org/1999/xlink" zoomAndPan="magnify" preserveAspectRatio="xMidYMid meet" version="1.0" viewBox="169.74 335.77 458.62 137.15"><defs><g/></defs><g fill="#ff00ff" fill-opacity="1"><g transform="translate(166.735394, 395.803037)"><g><path d="M 63.039062 -48.027344 C 63.039062 -54.632812 57.632812 -60.035156 51.03125 -60.035156 L 3 -60.035156 L 3 0 L 15.007812 0 L 15.007812 -24.015625 L 22.0625 -24.015625 L 44.277344 -1.800781 C 45.476562 -0.601562 46.976562 0 48.628906 0 L 63.039062 0 L 63.039062 -12.007812 L 51.03125 -12.007812 L 39.023438 -24.015625 L 51.03125 -24.015625 C 57.632812 -24.015625 63.039062 -29.417969 63.039062 -36.023438 Z M 51.03125 -48.027344 L 51.03125 -36.023438 L 15.007812 -36.023438 L 15.007812 -48.027344 Z M 51.03125 -48.027344 "/></g></g></g><g fill="#00ffff" fill-opacity="1"><g transform="translate(175.875787, 397.913232)"><g><path d="M 63.039062 -48.027344 C 63.039062 -54.632812 57.632812 -60.035156 51.03125 -60.035156 L 3 -60.035156 L 3 0 L 15.007812 0 L 15.007812 -24.015625 L 22.0625 -24.015625 L 44.277344 -1.800781 C 45.476562 -0.601562 46.976562 0 48.628906 0 L 63.039062 0 L 63.039062 -12.007812 L 51.03125 -12.007812 L 39.023438 -24.015625 L 51.03125 -24.015625 C 57.632812 -24.015625 63.039062 -29.417969 63.039062 -36.023438 Z M 51.03125 -48.027344 L 51.03125 -36.023438 L 15.007812 -36.023438 L 15.007812 -48.027344 Z M 51.03125 -48.027344 "/></g></g></g><g fill="#ff56f6" fill-opacity="1"><g transform="translate(171.305592, 396.858134)"><g><path d="M 63.039062 -48.027344 C 63.039062 -54.632812 57.632812 -60.035156 51.03125 -60.035156 L 3 -60.035156 L 3 0 L 15.007812 0 L 15.007812 -24.015625 L 22.0625 -24.015625 L 44.277344 -1.800781 C 45.476562 -0.601562 46.976562 0 48.628906 0 L 63.039062 0 L 63.039062 -12.007812 L 51.03125 -12.007812 L 39.023438 -24.015625 L 51.03125 -24.015625 C 57.632812 -24.015625 63.039062 -29.417969 63.039062 -36.023438 Z M 51.03125 -48.027344 L 51.03125 -36.023438 L 15.007812 -36.023438 L 15.007812 -48.027344 Z M 51.03125 -48.027344 "/></g></g></g><g fill="#ff00ff" fill-opacity="1"><g transform="translate(166.735394, 470.803033)"><g><path d="M 63.039062 -60.035156 L 15.007812 -60.035156 C 8.40625 -60.035156 3 -54.632812 3 -48.027344 L 3 0 L 15.007812 0 L 15.007812 -24.015625 L 63.039062 -24.015625 L 63.039062 -36.023438 L 15.007812 -36.023438 L 15.007812 -48.027344 L 63.039062 -48.027344 Z M 63.039062 -60.035156 "/></g></g></g><g fill="#ff00ff" fill-opacity="1"><g transform="translate(244.623673, 470.803033)"><g><path d="M 15.007812 -60.035156 C 8.40625 -60.035156 3 -54.632812 3 -48.027344 L 3 0 L 15.007812 0 L 15.007812 -24.015625 L 51.03125 -24.015625 L 51.03125 0 L 63.039062 0 L 63.039062 -48.027344 C 63.039062 -54.632812 57.632812 -60.035156 51.03125 -60.035156 Z M 15.007812 -48.027344 L 51.03125 -48.027344 L 51.03125 -36.023438 L 15.007812 -36.023438 Z M 15.007812 -48.027344 "/></g></g></g><g fill="#ff00ff" fill-opacity="1"><g transform="translate(322.511952, 470.803033)"><g><path d="M 15.007812 0 L 15.007812 -39.546875 L 52.757812 -1.800781 C 53.882812 -0.675781 55.382812 0 57.035156 0 C 60.335938 0 63.039062 -2.703125 63.039062 -6.003906 L 63.039062 -60.035156 L 51.03125 -60.035156 L 51.03125 -20.488281 L 13.28125 -58.234375 C 12.15625 -59.359375 10.65625 -60.035156 9.003906 -60.035156 C 5.703125 -60.035156 3 -57.335938 3 -54.03125 L 3 0 Z M 15.007812 0 "/></g></g></g><g fill="#ff00ff" fill-opacity="1"><g transform="translate(400.400232, 470.803033)"><g><path d="M 63.039062 -60.035156 L 15.007812 -60.035156 C 8.40625 -60.035156 3 -54.632812 3 -48.027344 L 3 -12.007812 C 3 -5.402344 8.40625 0 15.007812 0 L 51.03125 0 C 57.710938 0 63.039062 -5.476562 63.039062 -12.007812 L 63.039062 -36.023438 L 27.015625 -36.023438 L 27.015625 -24.015625 L 51.03125 -24.015625 L 51.03125 -12.007812 L 15.007812 -12.007812 L 15.007812 -48.027344 L 63.039062 -48.027344 Z M 63.039062 -60.035156 "/></g></g></g><g fill="#ff00ff" fill-opacity="1"><g transform="translate(478.288511, 470.803033)"><g><path d="M 63.039062 -60.035156 L 48.628906 -60.035156 C 46.976562 -60.035156 45.476562 -59.4375 44.277344 -58.234375 L 22.0625 -36.023438 L 15.007812 -36.023438 L 15.007812 -60.035156 L 3 -60.035156 L 3 0 L 15.007812 0 L 15.007812 -24.015625 L 22.0625 -24.015625 L 44.277344 -1.800781 C 45.476562 -0.601562 46.976562 0 48.628906 0 L 63.039062 0 L 63.039062 -12.007812 L 51.03125 -12.007812 L 33.019531 -30.019531 L 51.03125 -48.027344 L 63.039062 -48.027344 Z M 63.039062 -60.035156 "/></g></g></g><g fill="#ff00ff" fill-opacity="1"><g transform="translate(556.176812, 470.803033)"><g><path d="M 63.039062 0 L 63.039062 -12.007812 L 39.023438 -12.007812 L 39.023438 -48.027344 L 63.039062 -48.027344 L 63.039062 -60.035156 L 3 -60.035156 L 3 -48.027344 L 27.015625 -48.027344 L 27.015625 -12.007812 L 3 -12.007812 L 3 0 Z M 63.039062 0 "/></g></g></g><g fill="#00ffff" fill-opacity="1"><g transform="translate(175.875787, 472.913228)"><g><path d="M 63.039062 -60.035156 L 15.007812 -60.035156 C 8.40625 -60.035156 3 -54.632812 3 -48.027344 L 3 0 L 15.007812 0 L 15.007812 -24.015625 L 63.039062 -24.015625 L 63.039062 -36.023438 L 15.007812 -36.023438 L 15.007812 -48.027344 L 63.039062 -48.027344 Z M 63.039062 -60.035156 "/></g></g></g><g fill="#00ffff" fill-opacity="1"><g transform="translate(253.764066, 472.913228)"><g><path d="M 15.007812 -60.035156 C 8.40625 -60.035156 3 -54.632812 3 -48.027344 L 3 0 L 15.007812 0 L 15.007812 -24.015625 L 51.03125 -24.015625 L 51.03125 0 L 63.039062 0 L 63.039062 -48.027344 C 63.039062 -54.632812 57.632812 -60.035156 51.03125 -60.035156 Z M 15.007812 -48.027344 L 51.03125 -48.027344 L 51.03125 -36.023438 L 15.007812 -36.023438 Z M 15.007812 -48.027344 "/></g></g></g><g fill="#00ffff" fill-opacity="1"><g transform="translate(331.652345, 472.913228)"><g><path d="M 15.007812 0 L 15.007812 -39.546875 L 52.757812 -1.800781 C 53.882812 -0.675781 55.382812 0 57.035156 0 C 60.335938 0 63.039062 -2.703125 63.039062 -6.003906 L 63.039062 -60.035156 L 51.03125 -60.035156 L 51.03125 -20.488281 L 13.28125 -58.234375 C 12.15625 -59.359375 10.65625 -60.035156 9.003906 -60.035156 C 5.703125 -60.035156 3 -57.335938 3 -54.03125 L 3 0 Z M 15.007812 0 "/></g></g></g><g fill="#00ffff" fill-opacity="1"><g transform="translate(409.540624, 472.913228)"><g><path d="M 63.039062 -60.035156 L 15.007812 -60.035156 C 8.40625 -60.035156 3 -54.632812 3 -48.027344 L 3 -12.007812 C 3 -5.402344 8.40625 0 15.007812 0 L 51.03125 0 C 57.710938 0 63.039062 -5.476562 63.039062 -12.007812 L 63.039062 -36.023438 L 27.015625 -36.023438 L 27.015625 -24.015625 L 51.03125 -24.015625 L 51.03125 -12.007812 L 15.007812 -12.007812 L 15.007812 -48.027344 L 63.039062 -48.027344 Z M 63.039062 -60.035156 "/></g></g></g><g fill="#00ffff" fill-opacity="1"><g transform="translate(487.428903, 472.913228)"><g><path d="M 63.039062 -60.035156 L 48.628906 -60.035156 C 46.976562 -60.035156 45.476562 -59.4375 44.277344 -58.234375 L 22.0625 -36.023438 L 15.007812 -36.023438 L 15.007812 -60.035156 L 3 -60.035156 L 3 0 L 15.007812 0 L 15.007812 -24.015625 L 22.0625 -24.015625 L 44.277344 -1.800781 C 45.476562 -0.601562 46.976562 0 48.628906 0 L 63.039062 0 L 63.039062 -12.007812 L 51.03125 -12.007812 L 33.019531 -30.019531 L 51.03125 -48.027344 L 63.039062 -48.027344 Z M 63.039062 -60.035156 "/></g></g></g><g fill="#00ffff" fill-opacity="1"><g transform="translate(565.317205, 472.913228)"><g><path d="M 63.039062 0 L 63.039062 -12.007812 L 39.023438 -12.007812 L 39.023438 -48.027344 L 63.039062 -48.027344 L 63.039062 -60.035156 L 3 -60.035156 L 3 -48.027344 L 27.015625 -48.027344 L 27.015625 -12.007812 L 3 -12.007812 L 3 0 Z M 63.039062 0 "/></g></g></g><g fill="#ffffff" fill-opacity="1"><g transform="translate(171.305592, 471.858131)"><g><path d="M 63.039062 -60.035156 L 15.007812 -60.035156 C 8.40625 -60.035156 3 -54.632812 3 -48.027344 L 3 0 L 15.007812 0 L 15.007812 -24.015625 L 63.039062 -24.015625 L 63.039062 -36.023438 L 15.007812 -36.023438 L 15.007812 -48.027344 L 63.039062 -48.027344 Z M 63.039062 -60.035156 "/></g></g></g><g fill="#ffffff" fill-opacity="1"><g transform="translate(249.193871, 471.858131)"><g><path d="M 15.007812 -60.035156 C 8.40625 -60.035156 3 -54.632812 3 -48.027344 L 3 0 L 15.007812 0 L 15.007812 -24.015625 L 51.03125 -24.015625 L 51.03125 0 L 63.039062 0 L 63.039062 -48.027344 C 63.039062 -54.632812 57.632812 -60.035156 51.03125 -60.035156 Z M 15.007812 -48.027344 L 51.03125 -48.027344 L 51.03125 -36.023438 L 15.007812 -36.023438 Z M 15.007812 -48.027344 "/></g></g></g><g fill="#ffffff" fill-opacity="1"><g transform="translate(327.08215, 471.858131)"><g><path d="M 15.007812 0 L 15.007812 -39.546875 L 52.757812 -1.800781 C 53.882812 -0.675781 55.382812 0 57.035156 0 C 60.335938 0 63.039062 -2.703125 63.039062 -6.003906 L 63.039062 -60.035156 L 51.03125 -60.035156 L 51.03125 -20.488281 L 13.28125 -58.234375 C 12.15625 -59.359375 10.65625 -60.035156 9.003906 -60.035156 C 5.703125 -60.035156 3 -57.335938 3 -54.03125 L 3 0 Z M 15.007812 0 "/></g></g></g><g fill="#ffffff" fill-opacity="1"><g transform="translate(404.970429, 471.858131)"><g><path d="M 63.039062 -60.035156 L 15.007812 -60.035156 C 8.40625 -60.035156 3 -54.632812 3 -48.027344 L 3 -12.007812 C 3 -5.402344 8.40625 0 15.007812 0 L 51.03125 0 C 57.710938 0 63.039062 -5.476562 63.039062 -12.007812 L 63.039062 -36.023438 L 27.015625 -36.023438 L 27.015625 -24.015625 L 51.03125 -24.015625 L 51.03125 -12.007812 L 15.007812 -12.007812 L 15.007812 -48.027344 L 63.039062 -48.027344 Z M 63.039062 -60.035156 "/></g></g></g><g fill="#ffffff" fill-opacity="1"><g transform="translate(482.858708, 471.858131)"><g><path d="M 63.039062 -60.035156 L 48.628906 -60.035156 C 46.976562 -60.035156 45.476562 -59.4375 44.277344 -58.234375 L 22.0625 -36.023438 L 15.007812 -36.023438 L 15.007812 -60.035156 L 3 -60.035156 L 3 0 L 15.007812 0 L 15.007812 -24.015625 L 22.0625 -24.015625 L 44.277344 -1.800781 C 45.476562 -0.601562 46.976562 0 48.628906 0 L 63.039062 0 L 63.039062 -12.007812 L 51.03125 -12.007812 L 33.019531 -30.019531 L 51.03125 -48.027344 L 63.039062 -48.027344 Z M 63.039062 -60.035156 "/></g></g></g><g fill="#ffffff" fill-opacity="1"><g transform="translate(560.74701, 471.858131)"><g><path d="M 63.039062 0 L 63.039062 -12.007812 L 39.023438 -12.007812 L 39.023438 -48.027344 L 63.039062 -48.027344 L 63.039062 -60.035156 L 3 -60.035156 L 3 -48.027344 L 27.015625 -48.027344 L 27.015625 -12.007812 L 3 -12.007812 L 3 0 Z M 63.039062 0 "/></g></g></g></svg>